<?xml version="1.0" encoding="utf-8"?><!DOCTYPE svg PUBLIC "-//W3C//DTD SVG 1.1//EN" "http://www.w3.org/Graphics/SVG/1.1/DTD/svg11.dtd" [<!ENTITY ns_extend "http://ns.adobe.com/Extensibility/1.0/"><!ENTITY ns_ai "http://ns.adobe.com/AdobeIllustrator/10.0/"><!ENTITY ns_graphs "http://ns.adobe.com/Graphs/1.0/"><!ENTITY ns_vars "http://ns.adobe.com/Variables/1.0/"><!ENTITY ns_imrep "http://ns.adobe.com/ImageReplacement/1.0/"><!ENTITY ns_sfw "http://ns.adobe.com/SaveForWeb/1.0/"><!ENTITY ns_custom "http://ns.adobe.com/GenericCustomNamespace/1.0/"><!ENTITY ns_adobe_xpath "http://ns.adobe.com/XPath/1.0/">]><svg version="1.1" id="Layer_1" xmlns:x="&ns_extend;" xmlns:i="&ns_ai;" xmlns:graph="&ns_graphs;" xmlns="http://www.w3.org/2000/svg" xmlns:xlink="http://www.w3.org/1999/xlink" x="0px" y="0px" viewBox="0 0 511 489.7" style="enable-background:new 0 0 511 489.7;" xml:space="preserve"><metadata><sfw  xmlns="&ns_sfw;"><slices></slices><sliceSourceBounds  bottomLeftOrigin="true" height="489.7" width="511" x="0" y="10.3"></sliceSourceBounds></sfw></metadata><path d="M509.7,185.1c-3.3-10.3-12.5-17.7-23.4-18.7L338.8,153L280.5,16.5c-4.3-10-14.1-16.5-25-16.5c-10.9,0-20.7,6.5-25,16.5L172.2,153L24.7,166.4c-10.8,1-20,8.3-23.4,18.7s-0.3,21.7,7.9,28.9l111.5,97.8L87.9,456.5c-2.4,10.6,1.7,21.7,10.6,28c4.7,3.4,10.3,5.2,15.9,5.2c4.8,0,9.6-1.3,13.9-3.9l127.2-76l127.2,76c9.3,5.6,21,5.1,29.9-1.3c8.8-6.4,13-17.4,10.6-28l-32.9-144.8l111.5-97.8C509.9,206.7,513,195.4,509.7,185.1z"/></svg>
